# xmcd CD database file
#
# Track frame offsets:
#	182
#	15225
#	25285
#	35572
#	47727
#	61812
#	74045
#	86432
#	99025
#	112140
#	126530
#	140262
#	154107
#	167077
#	181277
#	193302
#	206767
#	220005
#	233795
#
# Disc length: 3324 seconds
#
# Revision: 1
# Processed by: cddbd v1.5.1PL0 Copyright (c) Steve Scherf et al.
# Submitted via: CDex 1.51
#
DISCID=0d0cfa13
DTITLE=Lionel Hampton - Dizionario Enciclopedico del Jazz - Volume 64
DYEAR=1992
DGENRE=Jazz
TTITLE0=One Sweet Letter From You
TTITLE1=When Lights Are Low
TTITLE2=Hot Mallets
TTITLE3=Early Session Hop
TTITLE4=I'm On My Way From You
TTITLE5=The Heebie Jeebies Are Rockin' The Town
TTITLE6=Dinah
TTITLE7=My Buddy
TTITLE8=Singin' The Blues
TTITLE9=House Of Morgan
TTITLE10=I'd Be Lost Without You
TTITLE11=Central Avenue Breakdown
TTITLE12=Jack The Bellboy
TTITLE13=Dough-Ra-Me
TTITLE14=Jivin' With Jarvis
TTITLE15=Blue
TTITLE16=I Don't Stand A Ghost Of A Chance
TTITLE17=Pig Foot Sonata
TTITLE18=Charlie Was A Sailor
EXTD=YEAR: 1992
EXTT0=
EXTT1=
EXTT2=
EXTT3=
EXTT4=
EXTT5=
EXTT6=
EXTT7=
EXTT8=
EXTT9=
EXTT10=
EXTT11=
EXTT12=
EXTT13=
EXTT14=
EXTT15=
EXTT16=
EXTT17=
EXTT18=
PLAYORDER=
